<?xml version="1.0" encoding="UTF-8"?>
<!DOCTYPE svg PUBLIC "-//W3C//DTD SVG 1.1//EN" "http://www.w3.org/Graphics/SVG/1.1/DTD/svg11.dtd">
<!-- Creator: CorelDRAW -->
<svg xmlns="http://www.w3.org/2000/svg" xml:space="preserve" width="3.125in" height="0.458in" style="shape-rendering:geometricPrecision; text-rendering:geometricPrecision; image-rendering:optimizeQuality; fill-rule:evenodd; clip-rule:evenodd"
viewBox="0 0 3.125 0.458"
 xmlns:xlink="http://www.w3.org/1999/xlink"
 version="1.1">
 <defs>
  <style type="text/css">
   <![CDATA[
    .str0 {stroke:#979797;stroke-width:0.00520866}
    .fil0 {fill:#31394D}
    .fil2 {fill:#D8D8D8}
    .fil1 {fill:white;fill-rule:nonzero}
   ]]>
  </style>
 </defs>
 <g id="Layer_x0020_1">
  <metadata id="CorelCorpID_0Corel-Layer"/>
  <rect id="Rectangle" class="fil0" y="-0.000161417" width="3.125" height="0.458335"/>
  <path class="fil1" d="M0.239106 0.174843c0.0146024,0.0151811 0.0219055,0.0333189 0.0219055,0.0544094 0,0.0210945 -0.0073622,0.0393465 -0.0220787,0.0547598 -0.0147165,0.0154134 -0.032622,0.023122 -0.0537165,0.023122 -0.0259606,0 -0.0467047,-0.011126 -0.0622323,-0.033378l0 0.0785748 0.0340709 0c0.00625984,0 0.00938583,0.0023189 0.00938583,0.00695276 0,0.00486614 -0.00312598,0.00730315 -0.00938583,0.00730315l-0.0671024 0c-0.00625591,0 -0.00938583,-0.00243701 -0.00938583,-0.00730315 0,-0.00463386 0.00312992,-0.00695276 0.00938583,-0.00695276l0.0187756 0 0 -0.181142 -0.0187756 0c-0.00625591,0 -0.00938583,-0.00243307 -0.00938583,-0.00729921 0,-0.0046378 0.00312992,-0.00695276 0.00938583,-0.00695276l0.0330315 0 0 0.0285079c0.00927165,-0.0120512 0.0186575,-0.0206299 0.0281614,-0.0257283 0.00950394,-0.00509843 0.0208583,-0.00764961 0.0340709,-0.00764961 0.0213228,0 0.0392874,0.00759055 0.0538898,0.0227756zm0.00764961 0.0551063c0,-0.0171535 -0.0059685,-0.0320433 -0.0179055,-0.0446772 -0.011937,-0.0126339 -0.0265984,-0.0189488 -0.0439803,-0.0189488 -0.0169213,0 -0.0314646,0.00631496 -0.0436339,0.0189488 -0.0121693,0.0126339 -0.018252,0.0272913 -0.018252,0.0439803 0,0.016689 0.00608268,0.0314646 0.018252,0.0443307 0.0121693,0.0128622 0.0267126,0.0192953 0.0436339,0.0192953 0.016689,0 0.0311732,-0.00637402 0.0434606,-0.019122 0.0122835,-0.012748 0.0184252,-0.0273504 0.0184252,-0.0438071z"/>
  <path class="fil1" d="M0.423827 0.296941c0,0.00487008 -0.00324409,0.00730315 -0.00973228,0.00730315l-0.125512 0c-0.00625984,0 -0.00938583,-0.00243307 -0.00938583,-0.00730315 0,-0.00463386 0.00312598,-0.00695276 0.00938583,-0.00695276l0.055626 0 0 -0.181488 -0.0406772 0c-0.00625591,0 -0.00938583,-0.00243307 -0.00938583,-0.00729921 0,-0.0046378 0.00312992,-0.00695276 0.00938583,-0.00695276l0.0549331 0 0 0.19574 0.0556299 0c0.00648819,0 0.00973228,0.0023189 0.00973228,0.00695276z"/>
  <path class="fil1" d="M0.823382 0.10572c0,0.00463386 -0.00243307,0.00695276 -0.00730315,0.00695276l-0.0173819 -0.00208661c-0.0125157,-0.00138976 -0.0227165,-0.00208661 -0.0305984,-0.00208661 -0.0113543,0 -0.020626,0.00272441 -0.027811,0.00817323 -0.00718504,0.00544488 -0.0107795,0.0125748 -0.0107795,0.0213819l0 0.0212087 0.0657126 0c0.00625591,0 0.00938583,0.00231496 0.00938583,0.00695276 0,0.00486614 -0.00312992,0.00729921 -0.00938583,0.00729921l-0.0657126 0 0 0.116472 0.0618858 0c0.00625984,0 0.00938976,0.0023189 0.00938976,0.00695276 0,0.00487008 -0.00312992,0.00730315 -0.00938976,0.00730315l-0.110213 0c-0.00625984,0 -0.00938583,-0.00243307 -0.00938583,-0.00730315 0,-0.00463386 0.00312598,-0.00695276 0.00938583,-0.00695276l0.0340709 0 0 -0.116472 -0.0305945 0c-0.00625984,0 -0.00938583,-0.00243307 -0.00938583,-0.00729921 0,-0.0046378 0.00312598,-0.00695276 0.00938583,-0.00695276l0.0305945 0 0 -0.0212087c0,-0.012748 0.00504331,-0.0232362 0.015126,-0.0314646 0.0100827,-0.00822835 0.0228898,-0.0123425 0.0384173,-0.0123425 0.0162244,0 0.0323346,0.00150394 0.0483268,0.00451969 0.00417323,0.00115748 0.00625984,0.00347638 0.00625984,0.00695276z"/>
  <path class="fil1" d="M1.00245 0.230642c0,0.0213268 -0.00776772,0.0394646 -0.0232953,0.0544134 -0.0155315,0.0149488 -0.034189,0.0224252 -0.0559764,0.0224252 -0.0220197,0 -0.0407362,-0.0075315 -0.0561496,-0.0225984 -0.0154134,-0.0150669 -0.023122,-0.0334921 -0.023122,-0.0552795 0,-0.0213268 0.00770866,-0.0395787 0.023122,-0.0547598 0.0154134,-0.015185 0.0341299,-0.0227756 0.0561496,-0.0227756 0.022252,0 0.0410276,0.00759055 0.0563228,0.0227756 0.0152992,0.0151811 0.0229488,0.0337795 0.0229488,0.0557992zm-0.0142559 0c0,-0.018311 -0.00625984,-0.0336063 -0.0187756,-0.0458898 -0.0125157,-0.0122874 -0.0279291,-0.0184291 -0.0462402,-0.0184291 -0.0180787,0 -0.0334331,0.00614173 -0.0460669,0.0184291 -0.0126339,0.0122835 -0.0189488,0.0272323 -0.0189488,0.0448504 0,0.0176142 0.00631496,0.032622 0.0189488,0.0450236 0.0126339,0.0123976 0.0279882,0.0185984 0.0460669,0.0185984 0.0178465,0 0.0331457,-0.00614173 0.0458937,-0.0184252 0.012748,-0.0122835 0.019122,-0.0270039 0.019122,-0.0441575z"/>
  <path class="fil1" d="M1.18823 0.177343c0,0.00208661 -0.00069685,0.00382283 -0.00208661,0.00521654 -0.00138976,0.00138976 -0.00312992,0.00208268 -0.00521654,0.00208268 -0.00185433,0 -0.00370866,-0.000925197 -0.00556299,-0.00277953 -0.00811024,-0.00788189 -0.0157598,-0.0118228 -0.0229449,-0.0118228 -0.00788189,0 -0.0160512,0.00278346 -0.0245118,0.00834646 -0.00846063,0.00556299 -0.022311,0.0171496 -0.0415472,0.0347677l0 0.0768346 0.0622323 0c0.00625984,0 0.00938976,0.00243307 0.00938976,0.00730315 0,0.00463386 -0.00312992,0.00695276 -0.00938976,0.00695276l-0.109866 0c-0.00625591,0 -0.00938583,-0.00243307 -0.00938583,-0.00730315 0,-0.00463386 0.00312992,-0.00695276 0.00938583,-0.00695276l0.033378 0 0 -0.116472 -0.0260748 0c-0.00625984,0 -0.00938583,-0.00243307 -0.00938583,-0.00729921 0,-0.0046378 0.00312598,-0.00695276 0.00938583,-0.00695276l0.0403307 0 0 0.0354606c0.0159921,-0.0146024 0.0289724,-0.0247402 0.0389409,-0.0304213 0.00996457,-0.00567717 0.0193543,-0.00851575 0.0281614,-0.00851575 0.00927165,0 0.0181929,0.00359055 0.0267717,0.0107756 0.00533071,0.00440551 0.00799606,0.00799606 0.00799606,0.0107795z"/>
  <path class="fil1" d="M1.43172 0.296941c0,0.00487008 -0.00312992,0.00730315 -0.00938976,0.00730315l-0.0257244 0 0 -0.110909c0,-0.00648819 -0.0023189,-0.0122244 -0.00695669,-0.0172087 -0.00463386,-0.00498425 -0.00996457,-0.00747638 -0.0159921,-0.00747638 -0.0115906,0 -0.0236417,0.00950394 -0.0361575,0.0285118l0 0.0928268 0.0118189 0c0.00625984,0 0.00938976,0.0023189 0.00938976,0.00695276 0,0.00487008 -0.00312992,0.00730315 -0.00938976,0.00730315l-0.0257283 0 0 -0.109866c0,-0.00672047 -0.00225984,-0.012689 -0.00677953,-0.0179055 -0.00451969,-0.00521654 -0.00979134,-0.00782283 -0.0158189,-0.00782283 -0.0115866,0 -0.0237559,0.00950394 -0.0365039,0.0285118l0 0.0928268 0.0118189 0c0.00625984,0 0.00938976,0.0023189 0.00938976,0.00695276 0,0.00487008 -0.00312992,0.00730315 -0.00938976,0.00730315l-0.0378976 0c-0.00602362,0 -0.00903937,-0.00243307 -0.00903937,-0.00730315 0,-0.00463386 0.00312992,-0.00695276 0.00938976,-0.00695276l0.0118189 0 0 -0.116472 -0.0118189 0c-0.00625984,0 -0.00938976,-0.00243307 -0.00938976,-0.00729921 0,-0.0046378 0.00312992,-0.00695276 0.00938976,-0.00695276l0.0257283 0 0 0.0180787c0.00579528,-0.00834646 0.0114724,-0.0142559 0.0170354,-0.0177323 0.00556299,-0.00347638 0.0120512,-0.00521654 0.0194685,-0.00521654 0.0148346,0 0.0260787,0.00822835 0.0337244,0.024685 0.012748,-0.0164567 0.0258465,-0.024685 0.0392874,-0.024685 0.0099685,0 0.0185433,0.00370866 0.0257283,0.011126 0.00718504,0.00741732 0.0107795,0.0162244 0.0107795,0.0264252l0 0.0980433 0.0118189 0c0.00625984,0 0.00938976,0.0023189 0.00938976,0.00695276z"/>
  <path class="fil1" d="M1.63441 0.296941c0,0.00487008 -0.00312992,0.00730315 -0.00938976,0.00730315l-0.0330276 0 0 -0.0232953c-0.0206299,0.0192402 -0.0427638,0.0288583 -0.0664055,0.0288583 -0.0162244,0 -0.0293228,-0.00411417 -0.0392874,-0.0123425 -0.0099685,-0.00822835 -0.0149528,-0.0189488 -0.0149528,-0.0321614 0,-0.015063 0.00677953,-0.0272913 0.0203386,-0.0366772 0.013563,-0.00938976 0.0312362,-0.0140827 0.0530236,-0.0140827 0.0136732,0 0.029437,0.00243307 0.0472835,0.00730315l0 -0.024685c0,-0.00857874 -0.00394094,-0.0154724 -0.0118228,-0.020689 -0.00787795,-0.00521654 -0.0181929,-0.00782283 -0.0309409,-0.00782283 -0.0104331,0 -0.0268898,0.00347638 -0.0493701,0.0104291l-0.00347638 0.00069685c-0.00185433,0 -0.00342126,-0.00069685 -0.00469685,-0.00208661 -0.00127165,-0.00138976 -0.00190945,-0.00301181 -0.00190945,-0.00486614 0,-0.00347638 0.0019685,-0.00590945 0.00590945,-0.00730315 0.0215551,-0.00741732 0.039752,-0.011126 0.0545866,-0.011126 0.0162244,0 0.0296102,0.00405906 0.0401535,0.0121693 0.0105472,0.00811417 0.0158228,0.018311 0.0158228,0.0305984l0 0.0928268 0.0187717 0c0.00625984,0 0.00938976,0.0023189 0.00938976,0.00695276zm-0.0424173 -0.0316378l0 -0.0312913c-0.0139094,-0.00347638 -0.0287402,-0.0052126 -0.0445039,-0.0052126 -0.018311,0 -0.0332008,0.00341732 -0.0446772,0.0102559 -0.0114724,0.00683858 -0.0172087,0.0157047 -0.0172087,0.0265984 0,0.00903937 0.00359449,0.0162795 0.0107795,0.0217283 0.00718504,0.00544488 0.0168031,0.00816929 0.0288543,0.00816929 0.0122874,0 0.0235866,-0.00231496 0.0339016,-0.00695276 0.010311,-0.00463386 0.0212638,-0.0124016 0.0328543,-0.0232953z"/>
  <path class="fil1" d="M1.81732 0.286512c0,0.00509843 -0.00782283,0.0102559 -0.0234685,0.0154724 -0.0156457,0.00521654 -0.0308858,0.00782283 -0.0457205,0.00782283 -0.0164567,0 -0.0295512,-0.00388189 -0.0392874,-0.0116457 -0.00973622,-0.00776772 -0.0146024,-0.0181378 -0.0146024,-0.0311181l0 -0.0935276 -0.0257283 0c-0.00648819,0 -0.00973622,-0.00243307 -0.00973622,-0.00729921 0,-0.0046378 0.00324803,-0.00695276 0.00973622,-0.00695276l0.0257283 0 0 -0.041374c0,-0.00625984 0.00243307,-0.00938976 0.00729921,-0.00938976 0.0046378,0 0.00695669,0.00312992 0.00695669,0.00938976l0 0.041374 0.0764882 0c0.00625591,0 0.00938583,0.00231496 0.00938583,0.00695276 0,0.00486614 -0.00312992,0.00729921 -0.00938583,0.00729921l-0.0764882 0 0 0.0928307c0,0.00880709 0.00347638,0.015878 0.0104291,0.0212087 0.00695276,0.00533071 0.0164567,0.00799606 0.0285079,0.00799606 0.00973622,0 0.0201102,-0.00133071 0.0311181,-0.00399606 0.0110118,-0.00266535 0.019878,-0.0059685 0.0265984,-0.00990945 0.0023189,-0.00138976 0.00417323,-0.00208661 0.00556299,-0.00208661 0.00162205,0 0.00312992,0.00069685 0.00451969,0.00208661 0.00138976,0.00138976 0.00208661,0.00301181 0.00208661,0.00486614z"/>
  <path class="fil1" d="M2.00402 0.230642c0,0.0213268 -0.00776772,0.0394646 -0.0232953,0.0544134 -0.0155315,0.0149488 -0.034189,0.0224252 -0.0559764,0.0224252 -0.0220197,0 -0.0407362,-0.0075315 -0.0561496,-0.0225984 -0.0154134,-0.0150669 -0.023122,-0.0334921 -0.023122,-0.0552795 0,-0.0213268 0.00770866,-0.0395787 0.023122,-0.0547598 0.0154134,-0.015185 0.0341299,-0.0227756 0.0561496,-0.0227756 0.022252,0 0.0410276,0.00759055 0.0563228,0.0227756 0.0152992,0.0151811 0.0229488,0.0337795 0.0229488,0.0557992zm-0.0142559 0c0,-0.018311 -0.00625984,-0.0336063 -0.0187756,-0.0458898 -0.0125157,-0.0122874 -0.0279291,-0.0184291 -0.0462402,-0.0184291 -0.0180787,0 -0.0334331,0.00614173 -0.0460669,0.0184291 -0.0126339,0.0122835 -0.0189488,0.0272323 -0.0189488,0.0448504 0,0.0176142 0.00631496,0.032622 0.0189488,0.0450236 0.0126339,0.0123976 0.0279882,0.0185984 0.0460669,0.0185984 0.0178465,0 0.0331457,-0.00614173 0.0458937,-0.0184252 0.012748,-0.0122835 0.019122,-0.0270039 0.019122,-0.0441575z"/>
  <path class="fil1" d="M2.1805 0.177343c0,0.00208661 -0.00069685,0.00382283 -0.00208661,0.00521654 -0.00138976,0.00138976 -0.00312992,0.00208268 -0.00521654,0.00208268 -0.00185433,0 -0.00370866,-0.000925197 -0.00556299,-0.00277953 -0.00811024,-0.00788189 -0.0157598,-0.0118228 -0.0229449,-0.0118228 -0.00788189,0 -0.0160512,0.00278346 -0.0245118,0.00834646 -0.00846063,0.00556299 -0.022311,0.0171496 -0.0415472,0.0347677l0 0.0768346 0.0622323 0c0.00625984,0 0.00938976,0.00243307 0.00938976,0.00730315 0,0.00463386 -0.00312992,0.00695276 -0.00938976,0.00695276l-0.109866 0c-0.00625591,0 -0.00938583,-0.00243307 -0.00938583,-0.00730315 0,-0.00463386 0.00312992,-0.00695276 0.00938583,-0.00695276l0.033378 0 0 -0.116472 -0.0260748 0c-0.00625984,0 -0.00938583,-0.00243307 -0.00938583,-0.00729921 0,-0.0046378 0.00312598,-0.00695276 0.00938583,-0.00695276l0.0403307 0 0 0.0354606c0.0159921,-0.0146024 0.0289724,-0.0247402 0.0389409,-0.0304213 0.00996457,-0.00567717 0.0193543,-0.00851575 0.0281614,-0.00851575 0.00927165,0 0.0181929,0.00359055 0.0267717,0.0107756 0.00533071,0.00440551 0.00799606,0.00799606 0.00799606,0.0107795z"/>
  <path class="fil1" d="M2.38313 0.166217c0,0.00486614 -0.00312992,0.00729921 -0.00938583,0.00729921l-0.00487008 0 -0.0890039 0.181142 0.0225984 0c0.00625984,0 0.00938976,0.0023189 0.00938976,0.00695276 0,0.00486614 -0.00312992,0.00730315 -0.00938976,0.00730315l-0.0810079 0c-0.00625984,0 -0.00938583,-0.00243701 -0.00938583,-0.00730315 0,-0.00463386 0.00312598,-0.00695276 0.00938583,-0.00695276l0.0441535 0 0.024685 -0.0504134 -0.0653622 -0.130728 -0.00556299 0c-0.00625591,0 -0.00938583,-0.00243307 -0.00938583,-0.00729921 0,-0.0046378 0.00312992,-0.00695276 0.00938583,-0.00695276l0.0399843 0c0.00625591,0 0.00938583,0.00231496 0.00938583,0.00695276 0,0.00486614 -0.00312992,0.00729921 -0.00938583,0.00729921l-0.0180787 0 0.0570197 0.115083 0.0559724 -0.115083 -0.0187717 0c-0.00625984,0 -0.00938976,-0.00243307 -0.00938976,-0.00729921 0,-0.0046378 0.00312992,-0.00695276 0.00938976,-0.00695276l0.0382441 0c0.00625591,0 0.00938583,0.00231496 0.00938583,0.00695276z"/>
  <path class="fil1" d="M2.47336 0.16587c0.00463386,0.00440157 0.00695276,0.00985039 0.00695276,0.0163386 0,0.00649213 -0.0023189,0.011937 -0.00695276,0.0163425 -0.0046378,0.00440157 -0.010315,0.0066063 -0.0170354,0.0066063l-0.00348031 0c-0.00672047,0 -0.0123976,-0.00220472 -0.0170354,-0.0066063 -0.00463386,-0.00440551 -0.00695276,-0.00985039 -0.00695276,-0.0163425 0,-0.00648819 0.0023189,-0.011937 0.00695276,-0.0163386 0.0046378,-0.00440551 0.010315,-0.0066063 0.0170354,-0.0066063l0.00348031 0c0.00672047,0 0.0123976,0.00220079 0.0170354,0.0066063zm0 0.104476c0.00463386,0.0042874 0.00695276,0.00967717 0.00695276,0.0161654 0,0.00649213 -0.0023189,0.011937 -0.00695276,0.0163425 -0.0046378,0.00440157 -0.010315,0.0066063 -0.0170354,0.0066063l-0.00348031 0c-0.00672047,0 -0.0123976,-0.00220472 -0.0170354,-0.0066063 -0.00463386,-0.00440551 -0.00695276,-0.00985039 -0.00695276,-0.0163425 0,-0.00648819 0.0023189,-0.011878 0.00695276,-0.0161654 0.0046378,-0.0042874 0.010315,-0.00643307 0.0170354,-0.00643307l0.00348031 0c0.00672047,0 0.0123976,0.00214567 0.0170354,0.00643307zm0.262146 -0.0742283c0,0.00254724 -0.0028937,0.00718504 -0.00868898,0.0139055 -0.0113583,0.0136772 -0.022252,0.0205118 -0.0326811,0.0205118 -0.00556299,0 -0.0109528,-0.00144882 -0.0161693,-0.00434646 -0.0052126,-0.00289764 -0.0132677,-0.00898031 -0.0241614,-0.018252 -0.00857874,-0.00695276 -0.0156457,-0.0104291 -0.0212087,-0.0104291 -0.00440551,0 -0.0082874,0.00133071 -0.0116496,0.00399606 -0.00335827,0.00266535 -0.00886614,0.00886614 -0.0165118,0.0186024 -0.00208661,0.00277953 -0.00440551,0.00417323 -0.00695669,0.00417323 -0.00162205,0 -0.00312598,-0.00069685 -0.00451969,-0.00208661 -0.00138976,-0.00138976 -0.00208268,-0.00289764 -0.00208268,-0.00451969 0,-0.00301575 0.00324409,-0.00822835 0.00973228,-0.0156457 0.0108937,-0.0125157 0.0215551,-0.0187756 0.0319882,-0.0187756 0.00533071,0 0.0101969,0.00110236 0.0146024,0.00330315 0.00440157,0.00220079 0.0112402,0.00701181 0.0205118,0.0144291 0.0125157,0.0101969 0.0209764,0.0152992 0.0253819,0.0152992 0.00834252,0 0.0168031,-0.00602756 0.025378,-0.0180827 0.00394094,-0.00579134 0.00730315,-0.00868898 0.0100827,-0.00868898 0.00185433,0 0.00347638,0.000637795 0.00487008,0.00190945 0.00138976,0.00127559 0.00208268,0.00284252 0.00208268,0.00469685zm0.208606 -0.0229488c0,0.00486614 -0.00312598,0.00730315 -0.00938583,0.00730315l-0.0316378 0 -0.00312992 0.0438071 0.027815 0c0.00625591,0 0.00938583,0.00231496 0.00938583,0.00695276 0,0.00486614 -0.00312992,0.00729921 -0.00938583,0.00729921l-0.0288583 0 -0.00556299 0.0782283c-0.000232283,0.00602756 -0.00266535,0.00903937 -0.00729921,0.00903937 -0.00208661,0 -0.00376772,-0.000751969 -0.00504331,-0.00225984 -0.00127559,-0.00150394 -0.00190945,-0.00318504 -0.00190945,-0.00503937l0.00555906 -0.0799685 -0.0316378 0 -0.0052126 0.0782283c-0.000232283,0.00602756 -0.00266535,0.00903937 -0.00730315,0.00903937 -0.00185433,0 -0.00347638,-0.000692913 -0.00486614,-0.00208661 -0.00138976,-0.00138976 -0.00208661,-0.00312598 -0.00208661,-0.0052126l0.00556299 -0.0799685 -0.030248 0c-0.00625984,0 -0.00938583,-0.00243307 -0.00938583,-0.00729921 0,-0.0046378 0.00312598,-0.00695276 0.00938583,-0.00695276l0.0309409 0 0.00312992 -0.0438071 -0.0271181 0c-0.00625591,0 -0.00938583,-0.00243701 -0.00938583,-0.00730315 0,-0.00463386 0.00312992,-0.00695276 0.00938583,-0.00695276l0.0281614 0 0.00556299 -0.0782283c0.000232283,-0.00579528 0.00266535,-0.00869291 0.00730315,-0.00869291 0.00208661,0 0.00376378,0.00069685 0.00503937,0.00208661 0.00127559,0.0013937 0.00191339,0.00312992 0.00191339,0.00521654l-0.00556299 0.0796181 0.0316378 0 0.00556299 -0.0782283c0.000232283,-0.00579528 0.00255118,-0.00869291 0.00695276,-0.00869291 0.0046378,0 0.00695276,0.00324803 0.00695276,0.00973622l-0.00555906 0.077185 0.0309409 0c0.00625984,0 0.00938583,0.0023189 0.00938583,0.00695276zm-0.0552795 0.00730315l-0.0316378 0 -0.00312992 0.0438071 0.0316378 0 0.00312992 -0.0438071z"/>
  <rect id="Rectangle_0" class="fil2 str0" x="2.99659" y="0.0712362" width="0.0528858" height="0.255366"/>
  <path class="fil1" d="M0.590701 0.18739l-0.011752 0 -0.0015 0.00624803 -0.0005 0c-0.00137402,-0.00203937 -0.00341732,-0.00362205 -0.00616535,-0.00474803 -0.00270866,-0.00116535 -0.00608268,-0.00175197 -0.0100827,-0.00175197 -0.00520866,4.33071e-005 -0.0103346,0.00120866 -0.0152953,0.00346063 -0.00495669,0.00229134 -0.00958268,0.00541732 -0.013874,0.00937402 -0.00433071,0.00396063 -0.00808268,0.00846063 -0.011374,0.0135827 -0.00325197,0.00508268 -0.00579134,0.0105 -0.00766535,0.0161693 -0.00183465,0.00570866 -0.00275197,0.0114134 -0.00279134,0.0171654 3.93701e-005,0.0055 0.000956693,0.00995669 0.00274803,0.0134173 0.00179134,0.00345669 0.00420866,0.00603937 0.00725197,0.00766535 0.00303937,0.00162598 0.00645669,0.00241732 0.010248,0.00241732 0.00358268,-4.33071e-005 0.00708268,-0.000791339 0.0104567,-0.00229134 0.00337795,-0.00146063 0.00662598,-0.00341732 0.00962598,-0.00587402 0.00304331,-0.00241732 0.00579134,-0.00508661 0.00829134,-0.00796063 0.0025,-0.00291732 0.00462598,-0.00579134 0.00637795,-0.00862598l0.0005 0c-0.000125984,0.000751969 -0.000251969,0.00162598 -0.000334646,0.00254331 -8.26772e-005,0.000956693 -0.000165354,0.00195669 -0.000165354,0.00295669 0,0.000625984 3.93701e-005,0.00129528 0.000122047,0.00204331 8.26772e-005,0.000791339 0.000125984,0.00158268 0.000125984,0.00245669 0.000291339,0.00254331 0.00104331,0.00491732 0.00225197,0.00716929 0.00120472,0.00220866 0.003,0.00403937 0.00541339,0.00541732 0.00241732,0.00141339 0.00562598,0.00212205 0.00958661,0.00216535 0.00612205,-4.33071e-005 0.0120827,-0.00166535 0.0178307,-0.00487402 0.00579134,-0.00320866 0.011,-0.00762598 0.015626,-0.0132913 0.00466535,-0.00566929 0.00833465,-0.0122087 0.0110827,-0.0197087 0.00275197,-0.00746063 0.00416535,-0.0155 0.00420866,-0.024126 0,-0.00583465 -0.000791339,-0.0115827 -0.00245669,-0.017252 -0.00166929,-0.00566535 -0.00425197,-0.0109567 -0.00775197,-0.0159567 -0.0035,-0.005 -0.008,-0.00937402 -0.0135,-0.0132087 -0.0055,-0.00383465 -0.0120394,-0.00683465 -0.0196654,-0.009 -0.00766929,-0.00216535 -0.0164173,-0.00329134 -0.026374,-0.00333465 -0.0132953,4.33071e-005 -0.0255433,0.00225197 -0.0367087,0.00658661 -0.011126,0.00433071 -0.0208346,0.0104134 -0.0290433,0.0183307 -0.00820866,0.00787795 -0.0145827,0.0171693 -0.019126,0.0279173 -0.0045,0.010752 -0.00679134,0.0225433 -0.00687402,0.0354173 4.33071e-005,0.00924803 0.00137402,0.017748 0.00395669,0.0255 0.00258661,0.00770866 0.00620866,0.0145827 0.010878,0.020626 0.00466535,0.006 0.010122,0.011122 0.0164173,0.0152913 0.00629134,0.00420866 0.0131654,0.00737402 0.020622,0.00953937 0.00746063,0.00216929 0.015252,0.00329134 0.023378,0.00329134 0.00987402,8.66142e-005 0.0189134,-0.000874016 0.027122,-0.00283071 0.00825197,-0.00196063 0.0157913,-0.00537402 0.022626,-0.0101693l-0.00324803 -0.0055c-0.00558661,0.00304331 -0.0119173,0.00541732 -0.0189173,0.00712598 -0.007,0.00170866 -0.014878,0.00258268 -0.0235827,0.00262598 -0.00708661,0 -0.013878,-0.000956693 -0.0204173,-0.00283465 -0.00654331,-0.00187402 -0.0125827,-0.00466535 -0.018126,-0.00833071 -0.00554331,-0.00370866 -0.0104173,-0.00825197 -0.0145433,-0.013626 -0.00412205,-0.00537402 -0.00737402,-0.0115827 -0.00966535,-0.0185827 -0.00229134,-0.00704331 -0.00345669,-0.0148346 -0.0035,-0.023378 4.33071e-005,-0.00929134 0.00141732,-0.0179134 0.00412598,-0.025874 0.00270866,-0.00795669 0.00653937,-0.0151654 0.0114567,-0.0215827 0.00496063,-0.00637402 0.010752,-0.011874 0.0174606,-0.0164173 0.00670866,-0.00453937 0.0140827,-0.00803937 0.0220827,-0.0104567 0.00803937,-0.00241732 0.0165,-0.00366929 0.025374,-0.00366929 0.00816535,0 0.0157087,0.00112598 0.0225827,0.00337795 0.00687402,0.00224803 0.012874,0.0055 0.018,0.00979134 0.00508268,0.00429134 0.00904331,0.00953937 0.011874,0.0157087 0.00283465,0.00620866 0.00425197,0.013248 0.00429528,0.021122 -4.33071e-005,0.00654331 -0.00104331,0.0129173 -0.003,0.019 -0.00196063,0.00612598 -0.00462598,0.011626 -0.00796063,0.0165 -0.00333465,0.00487795 -0.00712598,0.00875197 -0.0112913,0.011626 -0.00416535,0.00283465 -0.0085,0.00429134 -0.013,0.00437402 -0.00262598,4.33071e-005 -0.00458268,-0.000704724 -0.00583465,-0.00216535 -0.00129134,-0.0015 -0.00191339,-0.00383465 -0.00191339,-0.00708268 0,-0.00137402 8.26772e-005,-0.00287402 0.000248031,-0.00454331 0.000165354,-0.00162205 0.0005,-0.00345669 0.001,-0.00545669l0.012752 -0.0535zm-0.0185 0.028c-0.00141732,0.00591732 -0.00358661,0.0115433 -0.00646063,0.0168346 -0.00283465,0.00529134 -0.00612598,0.01 -0.00983465,0.0140827 -0.00366535,0.00412598 -0.00745669,0.00737402 -0.011374,0.00970866 -0.00391732,0.00237402 -0.00758268,0.00358268 -0.0110827,0.00362205 -0.00329134,-8.26772e-005 -0.00587402,-0.00133071 -0.00783465,-0.00366535 -0.00191339,-0.00237402 -0.00287402,-0.006 -0.00291339,-0.0108346 3.93701e-005,-0.00441339 0.000791339,-0.00891339 0.00233071,-0.013622 0.00154331,-0.00466929 0.00362598,-0.00916929 0.00625197,-0.0135433 0.00266535,-0.00437402 0.00566535,-0.00833465 0.00908268,-0.0118346 0.00337402,-0.0035 0.00695669,-0.00629134 0.010748,-0.00833071 0.00379134,-0.00208268 0.00754331,-0.00312598 0.0113346,-0.00316929 0.00354331,4.33071e-005 0.00616535,0.000625984 0.00791732,0.00170866 0.00174803,0.00104331 0.00291732,0.00225197 0.0035,0.00358661 0.000625984,0.00133071 0.000956693,0.00237402 0.00108268,0.00320472l-0.00274803 0.012252z"/>
  <path class="fil1" d="M0.590701 0.18739l-0.011752 0 -0.0015 0.00624803 -0.0005 0c-0.00137402,-0.00203937 -0.00341732,-0.00362205 -0.00616535,-0.00474803 -0.00270866,-0.00116535 -0.00608268,-0.00175197 -0.0100827,-0.00175197 -0.00520866,4.33071e-005 -0.0103346,0.00120866 -0.0152953,0.00346063 -0.00495669,0.00229134 -0.00958268,0.00541732 -0.013874,0.00937402 -0.00433071,0.00396063 -0.00808268,0.00846063 -0.011374,0.0135827 -0.00325197,0.00508268 -0.00579134,0.0105 -0.00766535,0.0161693 -0.00183465,0.00570866 -0.00275197,0.0114134 -0.00279134,0.0171654 3.93701e-005,0.0055 0.000956693,0.00995669 0.00274803,0.0134173 0.00179134,0.00345669 0.00420866,0.00603937 0.00725197,0.00766535 0.00303937,0.00162598 0.00645669,0.00241732 0.010248,0.00241732 0.00358268,-4.33071e-005 0.00708268,-0.000791339 0.0104567,-0.00229134 0.00337795,-0.00146063 0.00662598,-0.00341732 0.00962598,-0.00587402 0.00304331,-0.00241732 0.00579134,-0.00508661 0.00829134,-0.00796063 0.0025,-0.00291732 0.00462598,-0.00579134 0.00637795,-0.00862598l0.0005 0c-0.000125984,0.000751969 -0.000251969,0.00162598 -0.000334646,0.00254331 -8.26772e-005,0.000956693 -0.000165354,0.00195669 -0.000165354,0.00295669 0,0.000625984 3.93701e-005,0.00129528 0.000122047,0.00204331 8.26772e-005,0.000791339 0.000125984,0.00158268 0.000125984,0.00245669 0.000291339,0.00254331 0.00104331,0.00491732 0.00225197,0.00716929 0.00120472,0.00220866 0.003,0.00403937 0.00541339,0.00541732 0.00241732,0.00141339 0.00562598,0.00212205 0.00958661,0.00216535 0.00612205,-4.33071e-005 0.0120827,-0.00166535 0.0178307,-0.00487402 0.00579134,-0.00320866 0.011,-0.00762598 0.015626,-0.0132913 0.00466535,-0.00566929 0.00833465,-0.0122087 0.0110827,-0.0197087 0.00275197,-0.00746063 0.00416535,-0.0155 0.00420866,-0.024126 0,-0.00583465 -0.000791339,-0.0115827 -0.00245669,-0.017252 -0.00166929,-0.00566535 -0.00425197,-0.0109567 -0.00775197,-0.0159567 -0.0035,-0.005 -0.008,-0.00937402 -0.0135,-0.0132087 -0.0055,-0.00383465 -0.0120394,-0.00683465 -0.0196654,-0.009 -0.00766929,-0.00216535 -0.0164173,-0.00329134 -0.026374,-0.00333465 -0.0132953,4.33071e-005 -0.0255433,0.00225197 -0.0367087,0.00658661 -0.011126,0.00433071 -0.0208346,0.0104134 -0.0290433,0.0183307 -0.00820866,0.00787795 -0.0145827,0.0171693 -0.019126,0.0279173 -0.0045,0.010752 -0.00679134,0.0225433 -0.00687402,0.0354173 4.33071e-005,0.00924803 0.00137402,0.017748 0.00395669,0.0255 0.00258661,0.00770866 0.00620866,0.0145827 0.010878,0.020626 0.00466535,0.006 0.010122,0.011122 0.0164173,0.0152913 0.00629134,0.00420866 0.0131654,0.00737402 0.020622,0.00953937 0.00746063,0.00216929 0.015252,0.00329134 0.023378,0.00329134 0.00987402,8.66142e-005 0.0189134,-0.000874016 0.027122,-0.00283071 0.00825197,-0.00196063 0.0157913,-0.00537402 0.022626,-0.0101693l-0.00324803 -0.0055c-0.00558661,0.00304331 -0.0119173,0.00541732 -0.0189173,0.00712598 -0.007,0.00170866 -0.014878,0.00258268 -0.0235827,0.00262598 -0.00708661,0 -0.013878,-0.000956693 -0.0204173,-0.00283465 -0.00654331,-0.00187402 -0.0125827,-0.00466535 -0.018126,-0.00833071 -0.00554331,-0.00370866 -0.0104173,-0.00825197 -0.0145433,-0.013626 -0.00412205,-0.00537402 -0.00737402,-0.0115827 -0.00966535,-0.0185827 -0.00229134,-0.00704331 -0.00345669,-0.0148346 -0.0035,-0.023378 4.33071e-005,-0.00929134 0.00141732,-0.0179134 0.00412598,-0.025874 0.00270866,-0.00795669 0.00653937,-0.0151654 0.0114567,-0.0215827 0.00496063,-0.00637402 0.010752,-0.011874 0.0174606,-0.0164173 0.00670866,-0.00453937 0.0140827,-0.00803937 0.0220827,-0.0104567 0.00803937,-0.00241732 0.0165,-0.00366929 0.025374,-0.00366929 0.00816535,0 0.0157087,0.00112598 0.0225827,0.00337795 0.00687402,0.00224803 0.012874,0.0055 0.018,0.00979134 0.00508268,0.00429134 0.00904331,0.00953937 0.011874,0.0157087 0.00283465,0.00620866 0.00425197,0.013248 0.00429528,0.021122 -4.33071e-005,0.00654331 -0.00104331,0.0129173 -0.003,0.019 -0.00196063,0.00612598 -0.00462598,0.011626 -0.00796063,0.0165 -0.00333465,0.00487795 -0.00712598,0.00875197 -0.0112913,0.011626 -0.00416535,0.00283465 -0.0085,0.00429134 -0.013,0.00437402 -0.00262598,4.33071e-005 -0.00458268,-0.000704724 -0.00583465,-0.00216535 -0.00129134,-0.0015 -0.00191339,-0.00383465 -0.00191339,-0.00708268 0,-0.00137402 8.26772e-005,-0.00287402 0.000248031,-0.00454331 0.000165354,-0.00162205 0.0005,-0.00345669 0.001,-0.00545669l0.012752 -0.0535zm-0.0185 0.028c-0.00141732,0.00591732 -0.00358661,0.0115433 -0.00646063,0.0168346 -0.00283465,0.00529134 -0.00612598,0.01 -0.00983465,0.0140827 -0.00366535,0.00412598 -0.00745669,0.00737402 -0.011374,0.00970866 -0.00391732,0.00237402 -0.00758268,0.00358268 -0.0110827,0.00362205 -0.00329134,-8.26772e-005 -0.00587402,-0.00133071 -0.00783465,-0.00366535 -0.00191339,-0.00237402 -0.00287402,-0.006 -0.00291339,-0.0108346 3.93701e-005,-0.00441339 0.000791339,-0.00891339 0.00233071,-0.013622 0.00154331,-0.00466929 0.00362598,-0.00916929 0.00625197,-0.0135433 0.00266535,-0.00437402 0.00566535,-0.00833465 0.00908268,-0.0118346 0.00337402,-0.0035 0.00695669,-0.00629134 0.010748,-0.00833071 0.00379134,-0.00208268 0.00754331,-0.00312598 0.0113346,-0.00316929 0.00354331,4.33071e-005 0.00616535,0.000625984 0.00791732,0.00170866 0.00174803,0.00104331 0.00291732,0.00225197 0.0035,0.00358661 0.000625984,0.00133071 0.000956693,0.00237402 0.00108268,0.00320472l-0.00274803 0.012252z"/>
 </g>
</svg>
