<svg id="Layer_1" enable-background="new 0 0 512 512" height="512" viewBox="0 0 512 512" width="512" xmlns="http://www.w3.org/2000/svg"><path id="XMLID_1473_" d="m2152.2 79.4c0-4.8-3.9-8.7-8.7-8.7s-8.7 3.9-8.7 8.7v2.3h17.3v-2.3z"/><path id="XMLID_1474_" d="m2128.1 91.7h31v13.6h-31z"/><path id="XMLID_1475_" d="m2112.1 427.4h62.9v13.9h-62.9z"/><path id="XMLID_1476_" d="m1749.1 79.4c0-4.8-3.9-8.7-8.7-8.7s-8.7 3.9-8.7 8.7v2.3h17.3v-2.3z"/><path id="XMLID_1477_" d="m1725 91.7h31v13.6h-31z"/><path id="XMLID_1480_" d="m1761.9 412.6h360.1v4.8h43v-302.1h-43v51.6h-16.8c-24.2 0-47.6-8.7-66-24.4-20.2-17.3-45.9-26.8-72.5-26.8h-49.6c-26.6 0-52.3 9.5-72.5 26.8-18.4 15.7-41.8 24.4-66 24.4h-16.8v-51.6h-43v302.1h43v-4.8zm82.2-10h-36.5v-35.8h36.5zm46.4 0h-36.5v-35.8h36.5zm46.5 0h-36.5v-35.8h36.5zm0-71.7h-36.5v-90.6h36.5zm92.9 71.7h-36.5v-35.8h36.5zm46.5 0h-36.5v-35.8h36.5zm45.7 0h-35.7v-35.8h35.7zm0-71.7h-35.7v-90.6h35.7zm-35.7-155.7c6.2 1.1 12.5 1.6 18.9 1.6h16.8v27.5h-35.7zm-46.5-19.6c11 8 23.4 13.9 36.5 17.4v31.3h-36.5zm-46.4-26.4c13.2 3.6 25.6 9.9 36.5 18.5v56.7h-36.5zm-46.5-3.6h19.8c5.6 0 11.2.5 16.6 1.4v77.3h-36.4zm0 88.8h175.1v15.9h-175.1zm129.4 25.9v90.6h-36.5v-90.6zm-46.5 0v90.6h-36.5v-90.6zm-82.9 0h36.5v90.6h-36.5zm0 100.6h175.1v15.9h-175.1zm0 25.8h36.5v35.8h-36.5zm-46.5-239.7c5.5-.9 11-1.4 16.6-1.4h19.8v78.7h-36.5v-77.3zm-46.4 20.7c10.8-8.6 23.2-14.9 36.5-18.5v75.2h-36.5zm-46.5 25.3c13.1-3.5 25.4-9.4 36.5-17.4v48.7h-36.5zm-45.7 3.9h16.8c6.4 0 12.7-.6 18.9-1.6v29.1h-35.7zm0 37.5h175.1v15.9h-175.1zm128.6 25.9v90.6h-36.5v-90.6zm-46.4 0v90.6h-36.5v-90.6zm-82.2 0h35.7v90.6h-35.7zm0 100.6h175.1v15.9h-175.1zm0 25.8h35.7v35.8h-35.7zm-23.2-148c0 2.8-2.2 5-5 5s-5-2.2-5-5v-64.8c0-2.8 2.2-5 5-5s5 2.2 5 5zm-5.5-82.1c-3.1 0-5.6-2.6-5.6-5.8s2.5-5.8 5.6-5.8 5.6 2.6 5.6 5.8-2.6 5.8-5.6 5.8z"/><path id="XMLID_1510_" d="m1709 427.4h62.9v13.9h-62.9z"/><g><path d="m466.2 79.4c0-4.8-3.9-8.7-8.7-8.7s-8.7 3.9-8.7 8.7v2.3h17.3v-2.3z"/><path d="m442.1 91.7h31v13.6h-31z"/><path d="m426.1 427.4h62.9v13.9h-62.9z"/><path d="m63.1 79.4c0-4.8-3.9-8.7-8.7-8.7s-8.7 3.9-8.7 8.7v2.3h17.3v-2.3z"/><path d="m39 91.7h31v13.6h-31z"/><path d="m75.9 412.6h360.1v4.8h43v-302.1h-43v51.6h-16.8c-24.2 0-47.6-8.7-66-24.4-20.2-17.3-45.9-26.8-72.5-26.8h-49.6c-26.6 0-52.3 9.5-72.5 26.8-18.4 15.7-41.8 24.4-66 24.4h-16.7v-51.6h-42.9v302.1h43v-4.8zm82.2-10h-36.5v-35.8h36.5zm46.4 0h-36.5v-35.8h36.5zm46.5 0h-36.5v-35.8h36.5zm0-71.7h-36.5v-90.6h36.5zm92.9 71.7h-36.5v-35.8h36.5zm46.5 0h-36.5v-35.8h36.5zm45.7 0h-35.7v-35.8h35.7zm0-71.7h-35.7v-90.6h35.7zm-35.7-155.7c6.2 1.1 12.5 1.6 18.9 1.6h16.8v27.5h-35.7zm-46.5-19.6c11 8 23.4 13.9 36.5 17.4v31.3h-36.5zm-46.4-26.4c13.2 3.6 25.6 9.9 36.5 18.5v56.7h-36.5zm-46.5-3.6h19.8c5.6 0 11.2.5 16.6 1.4v77.3h-36.4zm0 88.8h175.1v15.9h-175.1zm129.4 25.9v90.6h-36.5v-90.6zm-46.5 0v90.6h-36.5v-90.6zm-82.9 0h36.5v90.6h-36.5zm0 100.6h175.1v15.9h-175.1zm0 25.8h36.5v35.8h-36.5zm-46.5-239.7c5.5-.9 11-1.4 16.6-1.4h19.9v78.7h-36.5zm-46.4 20.7c10.8-8.6 23.2-14.9 36.5-18.5v75.2h-36.5zm-46.5 25.3c13.1-3.5 25.4-9.4 36.5-17.4v48.7h-36.5zm-45.7 3.9h16.8c6.4 0 12.7-.6 18.9-1.6v29.1h-35.7zm0 37.5h175.1v15.9h-175.1zm128.6 25.9v90.6h-36.5v-90.6zm-46.4 0v90.6h-36.5v-90.6zm-82.2 0h35.7v90.6h-35.7zm0 100.6h175.1v15.9h-175.1zm0 25.8h35.7v35.8h-35.7zm-23.2-148c0 2.8-2.2 5-5 5s-5-2.2-5-5v-64.8c0-2.8 2.2-5 5-5s5 2.2 5 5zm-5.5-82.1c-3.1 0-5.6-2.6-5.6-5.8s2.5-5.8 5.6-5.8 5.6 2.6 5.6 5.8-2.6 5.8-5.6 5.8z"/><path d="m23 427.4h62.9v13.9h-62.9z"/></g></svg>