<svg height="512" viewBox="0 0 64 64" width="512" xmlns="http://www.w3.org/2000/svg"><g id="worldwide-networks-wifi-transmission-global"><path d="m24.94 26.43a8.95 8.95 0 0 0 -1.88 4.57h3.96a23.513 23.513 0 0 1 .32-3.05 11.038 11.038 0 0 1 -2.4-1.52z"/><path d="m23.06 33a8.95 8.95 0 0 0 1.88 4.57 11.038 11.038 0 0 1 2.4-1.52 23.513 23.513 0 0 1 -.32-3.05z"/><path d="m29.64 37.32c.63 2.33 1.6 3.68 2.36 3.68s1.73-1.35 2.36-3.68a8.862 8.862 0 0 0 -4.72 0z"/><path d="m27.79 25.95a12.77 12.77 0 0 1 .89-2.31 9.184 9.184 0 0 0 -2.33 1.36 8.734 8.734 0 0 0 1.44.95z"/><path d="m26.35 39a9.184 9.184 0 0 0 2.33 1.36 12.77 12.77 0 0 1 -.89-2.31 8.734 8.734 0 0 0 -1.44.95z"/><path d="m29.24 35.36a10.76 10.76 0 0 1 5.52 0 20.617 20.617 0 0 0 .22-2.36h-5.96a20.617 20.617 0 0 0 .22 2.36z"/><path d="m34.36 26.68c-.63-2.33-1.6-3.68-2.36-3.68s-1.73 1.35-2.36 3.68a8.862 8.862 0 0 0 4.72 0z"/><path d="m29.02 31h5.96a20.617 20.617 0 0 0 -.22-2.36 10.76 10.76 0 0 1 -5.52 0 20.617 20.617 0 0 0 -.22 2.36z"/><path d="m36.66 36.05a11.038 11.038 0 0 1 2.4 1.52 8.95 8.95 0 0 0 1.88-4.57h-3.96a23.513 23.513 0 0 1 -.32 3.05z"/><path d="m36.21 38.05a12.77 12.77 0 0 1 -.89 2.31 9.184 9.184 0 0 0 2.33-1.36 8.734 8.734 0 0 0 -1.44-.95z"/><path d="m39.06 26.43a11.038 11.038 0 0 1 -2.4 1.52 23.513 23.513 0 0 1 .32 3.05h3.96a8.95 8.95 0 0 0 -1.88-4.57z"/><path d="m37.65 25a9.184 9.184 0 0 0 -2.33-1.36 12.77 12.77 0 0 1 .89 2.31 8.734 8.734 0 0 0 1.44-.95z"/><path d="m21 31h-8.184a3 3 0 1 0 0 2h8.184z"/><path d="m54 41a8.945 8.945 0 0 1 -6.363-2.637l-1.414 1.414a10.994 10.994 0 0 0 15.554 0l-1.414-1.414a8.945 8.945 0 0 1 -6.363 2.637z"/><path d="m54 37a4.93 4.93 0 0 1 -3.53-1.464l-1.421 1.408a6.989 6.989 0 0 0 9.9 0l-1.419-1.408a4.93 4.93 0 0 1 -3.53 1.464z"/><path d="m38.363 16.363 1.414 1.414a10.994 10.994 0 0 0 0-15.554l-1.414 1.414a9 9 0 0 1 0 12.726z"/><path d="m36.944 14.95a6.987 6.987 0 0 0 0-9.9l-1.408 1.42a4.988 4.988 0 0 1 0 7.06z"/><path d="m25.637 16.363a9 9 0 0 1 0-12.726l-1.414-1.414a10.994 10.994 0 0 0 0 15.554z"/><path d="m27.056 14.95 1.408-1.42a4.988 4.988 0 0 1 0-7.06l-1.408-1.42a6.987 6.987 0 0 0 0 9.9z"/><path d="m10 23a8.945 8.945 0 0 1 6.363 2.637l1.414-1.414a10.994 10.994 0 0 0 -15.554 0l1.414 1.414a8.945 8.945 0 0 1 6.363-2.637z"/><path d="m10 27a4.93 4.93 0 0 1 3.53 1.464l1.421-1.408a6.989 6.989 0 0 0 -9.9 0l1.419 1.408a4.93 4.93 0 0 1 3.53-1.464z"/><path d="m17.777 39.777-1.414-1.414a9 9 0 0 1 -12.726 0l-1.414 1.414a10.994 10.994 0 0 0 15.554 0z"/><path d="m10 39a6.919 6.919 0 0 0 4.951-2.056l-1.421-1.408a4.988 4.988 0 0 1 -7.06 0l-1.421 1.408a6.919 6.919 0 0 0 4.951 2.056z"/><path d="m25.637 47.637-1.414-1.414a10.994 10.994 0 0 0 0 15.554l1.414-1.414a9 9 0 0 1 0-12.726z"/><path d="m27.056 49.05a6.987 6.987 0 0 0 0 9.9l1.408-1.42a4.988 4.988 0 0 1 0-7.06z"/><path d="m38.363 47.637a9 9 0 0 1 0 12.726l1.414 1.414a10.994 10.994 0 0 0 0-15.554z"/><path d="m36.944 49.05-1.408 1.42a4.988 4.988 0 0 1 0 7.06l1.408 1.42a6.987 6.987 0 0 0 0-9.9z"/><path d="m61.777 24.223a10.994 10.994 0 0 0 -15.554 0l1.414 1.414a9 9 0 0 1 12.726 0z"/><path d="m54 25a6.919 6.919 0 0 0 -4.951 2.056l1.421 1.408a4.988 4.988 0 0 1 7.06 0l1.421-1.408a6.919 6.919 0 0 0 -4.951-2.056z"/><path d="m9 17h2v2h-2z"/><path d="m9 13h2v2h-2z"/><path d="m9 8h2v2h-2z"/><path d="m17 8h2v2h-2z"/><path d="m13 8h2v2h-2z"/><path d="m53 17h2v2h-2z"/><path d="m53 13h2v2h-2z"/><path d="m53 8h2v2h-2z"/><path d="m45 8h2v2h-2z"/><path d="m49 8h2v2h-2z"/><path d="m9 45h2v2h-2z"/><path d="m9 49h2v2h-2z"/><path d="m9 53h2v2h-2z"/><path d="m17 53h2v2h-2z"/><path d="m13 53h2v2h-2z"/><path d="m53 45h2v2h-2z"/><path d="m53 49h2v2h-2z"/><path d="m53 53h2v2h-2z"/><path d="m45 53h2v2h-2z"/><path d="m49 53h2v2h-2z"/><path d="m32 7a2.993 2.993 0 0 0 -1 5.816v8.184h2v-8.184a2.993 2.993 0 0 0 -1-5.816z"/><path d="m33 51.184v-8.184h-2v8.184a3 3 0 1 0 2 0z"/><path d="m54 35a3 3 0 1 0 -2.816-4h-8.184v2h8.184a3 3 0 0 0 2.816 2z"/></g></svg>