<svg id="Layer_5" enable-background="new 0 0 64 64" height="512" viewBox="0 0 64 64" width="512" xmlns="http://www.w3.org/2000/svg"><path d="m60 1h-12c-1.654 0-3 1.346-3 3v8c0 1.654 1.346 3 3 3h12c1.654 0 3-1.346 3-3v-8c0-1.654-1.346-3-3-3zm-9.72 12 .962-3.847c.318-1.268 1.451-2.153 2.758-2.153s2.44.885 2.758 2.153l.962 3.847zm10.72-1c0 .551-.448 1-1 1h-.22l-1.083-4.332c-.539-2.16-2.471-3.668-4.697-3.668s-4.158 1.508-4.697 3.668l-1.083 4.332h-.22c-.552 0-1-.449-1-1v-8c0-.551.448-1 1-1h12c.552 0 1 .449 1 1z"/><path d="m38 1h-12c-1.654 0-3 1.346-3 3v8c0 1.654 1.346 3 3 3h12c1.654 0 3-1.346 3-3v-8c0-1.654-1.346-3-3-3zm1 11c0 .551-.448 1-1 1h-12c-.552 0-1-.449-1-1v-8c0-.551.448-1 1-1h12c.552 0 1 .449 1 1z"/><path d="m4 15h12c1.654 0 3-1.346 3-3v-8c0-1.654-1.346-3-3-3h-12c-1.654 0-3 1.346-3 3v8c0 1.654 1.346 3 3 3zm-1-11c0-.551.448-1 1-1h12c.552 0 1 .449 1 1v8c0 .551-.448 1-1 1h-12c-.552 0-1-.449-1-1z"/><path d="m60 19h-12c-1.654 0-3 1.346-3 3v8c0 1.654 1.346 3 3 3h12c1.654 0 3-1.346 3-3v-8c0-1.654-1.346-3-3-3zm1 11c0 .551-.448 1-1 1h-12c-.552 0-1-.449-1-1v-8c0-.551.448-1 1-1h12c.552 0 1 .449 1 1z"/><path d="m38 19h-12c-1.654 0-3 1.346-3 3v7.263c-.641-.166-1.308-.263-2-.263s-1.359.097-2 .263v-7.263c0-1.654-1.346-3-3-3h-12c-1.654 0-3 1.346-3 3v8c0 1.654 1.346 3 3 3h10.082c-.684 1.178-1.082 2.542-1.082 4 0 2.436 1.098 4.618 2.821 6.086-4.406.581-7.821 4.352-7.821 8.914v11h23v-14.133l.132-.019c3.915-.56 6.868-3.964 6.868-7.92v-7.928c1.654 0 3-1.346 3-3v-8c0-1.654-1.346-3-3-3zm-11.486 15.639-3.514-1.757-.447.224c-2.231 1.115-4.702 1.753-7.194 1.87.833-2.314 3.044-3.976 5.641-3.976 2.47 0 4.595 1.501 5.514 3.639zm-4.547 18.98-.967.967-.967-.967.69-8.619h.554zm7.033-16.619c0-1.458-.398-2.822-1.082-4h3.082v6.469c0 1.51-1.13 2.789-2.628 2.977l-1.726.216c1.453-1.45 2.354-3.453 2.354-5.662zm-26-7v-8c0-.551.448-1 1-1h12c.552 0 1 .449 1 1v8.082c-.455.264-.881.572-1.274.918h-11.726c-.552 0-1-.449-1-1zm12 7c0-.004.001-.009.001-.013 2.753-.066 5.497-.704 7.992-1.873l4.001 2c-.062 3.256-2.724 5.886-5.994 5.886-3.309 0-6-2.691-6-6zm21 3.929c0 2.967-2.215 5.521-5.151 5.939l-1.849.265v13.867h-14v-12h-2v12h-3v-9c0-3.859 3.141-7 7-7h1.716l-.75 9.381 3.034 3.033 3.033-3.033-.749-9.381h.716l4.62-.57c2.497-.312 4.38-2.444 4.38-4.961v-10.969c0-.827.673-1.5 1.5-1.5s1.5.673 1.5 1.5zm3-10.929c0 .551-.448 1-1 1v-2.5c0-1.93-1.57-3.5-3.5-3.5s-3.5 1.57-3.5 3.5v2.5h-4.726c-.393-.346-.818-.653-1.274-.918v-8.082c0-.551.448-1 1-1h12c.552 0 1 .449 1 1z"/><path d="m5 23h10v2h-10z"/><path d="m13 27h2v2h-2z"/><path d="m5 27h6v2h-6z"/><path d="m54 23c-1.654 0-3 1.346-3 3s1.346 3 3 3 3-1.346 3-3-1.346-3-3-3zm0 4c-.552 0-1-.449-1-1s.448-1 1-1 1 .449 1 1-.448 1-1 1z"/><path d="m27 5h2v6h-2z"/><path d="m31 9h2v2h-2z"/><path d="m35 7h2v4h-2z"/><path d="m8 11c1.654 0 3-1.346 3-3s-1.346-3-3-3-3 1.346-3 3 1.346 3 3 3zm0-4c.552 0 1 .449 1 1s-.448 1-1 1-1-.449-1-1 .448-1 1-1z"/><path d="m13 5h2v2h-2z"/><path d="m13 9h2v2h-2z"/></svg>