<svg height="512" viewBox="0 0 60 60" width="512" xmlns="http://www.w3.org/2000/svg"><g id="Page-1" fill="none" fill-rule="evenodd"><g id="025---Building-3D-Map" fill="rgb(0,0,0)" fill-rule="nonzero"><path id="Shape" d="m21 20c0-3.3137085-2.6862915-6-6-6s-6 2.6862915-6 6 2.6862915 6 6 6c3.3123376-.0033074 5.9966926-2.6876624 6-6zm-10 0c0-2.209139 1.790861-4 4-4s4 1.790861 4 4-1.790861 4-4 4c-1.060866 0-2.0782816-.4214274-2.8284271-1.1715729s-1.1715729-1.7675611-1.1715729-2.8284271z"/><path id="Shape" d="m.367 59.156c.37514196.5296362.98396542.8443006 1.633.844h2.12c.85275761.0001329 1.61258775-.5383641 1.895-1.343l5.985-17.283v11.626c0 1.1045695.8954305 2 2 2h2c1.1045695 0 2-.8954305 2-2v-11.626l5.986 17.287c.2833976.8020193 1.0413832 1.3384584 1.892 1.339h2.122c.6467537-.0012956 1.2529587-.3152615 1.6271853-.8427522.3742266-.5274908.470275-1.2033856.2578147-1.8142478l-8.085-23.343h1.2c1.6568542 0 3-1.3431458 3-3v-19c-.0052514-1.2667854-.8056491-2.39374545-2-2.816v-3.184c-.0033074-3.31233757-2.6876624-5.99669262-6-6h-6c-3.31233757.00330738-5.99669262 2.68766243-6 6v3.184c-1.19435087.42225455-1.99474861 1.5492146-2 2.816v19c0 1.6568542 1.34314575 3 3 3h1.2l-8.085 23.336c-.21612798.6116344-.1221864 1.2901014.252 1.82zm13.633-6.156v-19h2v19zm14 5h-2.125l-7.875-22.738v-1.262h1.689zm-16-56h6c2.209139 0 4 1.790861 4 4v3h-2v-3c0-1.1045695-.8954305-2-2-2h-6c-1.1045695 0-2 .8954305-2 2v3h-2v-3c0-2.209139 1.790861-4 4-4zm6 7h-6v-3h6zm-12 22v-1h5c.5522847 0 1-.4477153 1-1s-.4477153-1-1-1h-5v-16c0-.5522847.44771525-1 1-1h16c.5522847 0 1 .4477153 1 1v16h-5c-.5522847 0-1 .4477153-1 1s.4477153 1 1 1h5v1c0 .5522847-.4477153 1-1 1h-16c-.55228475 0-1-.4477153-1-1zm4.312 3h1.688v1.262l-7.882 22.738h-2.118z"/><path id="Shape" d="m28 25c0 .5522847.4477153 1 1 1h11.522c.3262837.3950698.4623252.9136364.372 1.418-.1949926.600363-.68684 1.0570244-1.3 1.207-.7001407.2187954-1.4153952.3859109-2.14.5-1.0785533.1539338-2.1341205.4397396-3.143.851-1.2864643.5045123-2.1985351 1.6665126-2.383 3.036-.1074675 1.4380582.5701737 2.8220218 1.772 3.619 2.12 1.572 4.641 1.551 7.1 1.545 1.2721762-.0615153 2.5472076.0233749 3.8.253 2.667.624 5.228 2.571 5.413 5.571h-21.223c-.5522847 0-1 .4477153-1 1s.4477153 1 1 1h26.092l2.5 5h-26.172c-.5522847 0-1 .4477153-1 1s.4477153 1 1 1h23.672l2.5 5h-24.492c-.5522847 0-1 .4477153-1 1s.4477153 1 1 1h24.492c.6947884.0010227 1.3403254-.3586134 1.7051109-.9499369.3647854-.5913236.396545-1.3295969.0838891-1.9500631l-2.053-4.1h.264c.6947884.0010227 1.3403254-.3586134 1.7051109-.9499369.3647854-.5913236.396545-1.3295969.0838891-1.9500631l-2.053-4.1h.264c.6947884.0010227 1.3403254-.3586134 1.7051109-.9499369.3647854-.5913236.396545-1.3295969.0838891-1.9500631l-9-18c-.3380169-.6775994-1.0317821-1.1041738-1.789-1.1h-19.382c-.5522847 0-1 .4477153-1 1zm29.382 19h-5.372c-.181-3.56-2.9-6.57-6.959-7.519-1.4041831-.2652706-2.8345025-.36595-4.262-.3-2.216.009-4.31.024-5.9-1.152-.6238264-.3826258-.9968091-1.0683958-.979-1.8.1197106-.6605985.584708-1.2061496 1.218-1.429.8632583-.3423187 1.7643029-.5803368 2.684-.709.8205872-.1296863 1.6304618-.3198715 2.423-.569 1.2627606-.3645157 2.2466196-1.357078 2.6-2.623.1512653-.628441.1232021-1.2867132-.081-1.9h5.627z"/></g></g></svg>