<svg id="Layer_1" height="512" viewBox="0 0 128 128" width="512" xmlns="http://www.w3.org/2000/svg" data-name="Layer 1"><path d="m92.958 83.69-3.375-.309v-.939a1.75 1.75 0 0 0 -1.565-1.74l-9.411-1a1.736 1.736 0 0 0 -1.921 1.608 5.454 5.454 0 0 1 -1.52-1.906 28.1 28.1 0 0 0 16.241-19.936 7.453 7.453 0 0 0 2.026-14.111 1.741 1.741 0 0 0 .692-1.386l-.026-5.69a1.75 1.75 0 0 0 -1.749-1.681h-.48a28 28 0 0 0 -55.74 0h-.48a1.75 1.75 0 0 0 -1.75 1.684l-.026 5.688a1.741 1.741 0 0 0 .692 1.386 7.454 7.454 0 0 0 2.025 14.111 28.1 28.1 0 0 0 16.243 19.931 5.458 5.458 0 0 1 -1.519 1.905 1.735 1.735 0 0 0 -1.921-1.605l-9.412 1a1.751 1.751 0 0 0 -1.565 1.74v.939l-3.375.309c-12.905.047-23.792 11.418-23.792 24.873v6.421a1.75 1.75 0 0 0 3.5 0v-6.421c0-.624.032-1.242.085-1.855.138.005.277.021.415.021a11.68 11.68 0 0 0 11.667-11.664 11.537 11.537 0 0 0 -1.288-5.316 19.155 19.155 0 0 1 9.495-2.556c.053 0 .106 0 .159-.007l3.134-.286v15.178h-6.584a1.75 1.75 0 0 0 -1.723 1.441l-2 11.159a1.75 1.75 0 1 0 3.445.617l1.742-9.718h61.403l1.741 9.718a1.751 1.751 0 0 0 1.721 1.441 1.772 1.772 0 0 0 .311-.027 1.751 1.751 0 0 0 1.414-2.031l-2-11.159a1.75 1.75 0 0 0 -1.723-1.441h-6.581v-15.176l3.135.286c.053 0 .106.007.159.007a19.52 19.52 0 0 1 12.2 4.393h-3.577a1.75 1.75 0 0 0 -1.75 1.75v6a1.75 1.75 0 0 0 1.75 1.75h10.406a21.58 21.58 0 0 1 1.344 7.48v6.421a1.75 1.75 0 0 0 3.5 0v-6.421c0-13.458-10.887-24.829-23.792-24.876zm-69.541 11.373a8.2 8.2 0 0 1 -7.991 8.157 21.933 21.933 0 0 1 7.269-11.447 8.048 8.048 0 0 1 .722 3.29zm52.178-10.274-5.877 7.311-3.359-3.5 6-7.037a8.971 8.971 0 0 0 3.236 3.226zm-11.595 1.18-3.84-4.5a27.457 27.457 0 0 0 7.68 0zm-8.357-4.409 6 7.037-3.359 3.5-5.879-7.307a8.973 8.973 0 0 0 3.238-3.229zm-4.315 7.476 5.474 6.81a1.746 1.746 0 0 0 1.287.651h.077a1.752 1.752 0 0 0 1.263-.539l2.82-2.941v9.055h-10.92zm14.422 3.984 2.82 2.941a1.746 1.746 0 0 0 1.263.539h.076a1.748 1.748 0 0 0 1.288-.651l5.475-6.81v13.039h-10.922zm-27.974-52.92h52.849v2.123h-53.25v-2.123h.4zm1.724 13.634v-8.012h49v8.013.187a8.58 8.58 0 0 1 -8.667 8.329h-1.822a8.495 8.495 0 0 1 -5.491-1.9 20.357 20.357 0 0 0 -8.083-4.225 1.781 1.781 0 0 0 -.872 0 20.364 20.364 0 0 0 -8.083 4.225 8.5 8.5 0 0 1 -5.492 1.9h-1.819a8.579 8.579 0 0 1 -8.666-8.316c-.005-.068-.005-.135-.005-.201zm52.425 1.949c.04-.579.066-1.161.07-1.748 0-.031 0-.061.005-.091v-5.284a3.942 3.942 0 0 1 -.075 7.124zm-27.925-40.917a24.386 24.386 0 0 1 24.35 21.834h-48.7a24.385 24.385 0 0 1 24.35-21.834zm-30.216 37.334a3.958 3.958 0 0 1 2.216-3.54v5.291c0 .033.005.064.005.1 0 .583.03 1.161.07 1.736a3.962 3.962 0 0 1 -2.291-3.587zm7.94 11.812a12.239 12.239 0 0 0 6.448 1.836h1.817a12 12 0 0 0 7.748-2.728 16.975 16.975 0 0 1 6.263-3.389 16.975 16.975 0 0 1 6.264 3.392 12 12 0 0 0 7.747 2.728h1.817a12.236 12.236 0 0 0 6.449-1.837 24.486 24.486 0 0 1 -44.553 0zm.193 20.1 5.912-.629v.671.086s0 .045 0 .067v17.864h-5.912zm38.255 18.059v-17.861c0-.01 0-.02 0-.03a1.723 1.723 0 0 0 0-.186v-.6l5.911.628v18.059zm23.078-4.492v-2.5h5.3a22.019 22.019 0 0 1 1.706 2.5z"/><path d="m48.171 60.75h1.817a7 7 0 0 0 4.526-1.55 21.858 21.858 0 0 1 8.677-4.53l.809-.209.809.209a21.859 21.859 0 0 1 8.677 4.53 7 7 0 0 0 4.524 1.551h1.817a7.069 7.069 0 0 0 7.173-6.907v-4.872a1.75 1.75 0 0 0 -1.75-1.75h-42.5a1.75 1.75 0 0 0 -1.75 1.75v4.858a7.077 7.077 0 0 0 7.171 6.92zm-3.671-10.028h39v3.115a3.564 3.564 0 0 1 -3.672 3.413h-1.817a3.5 3.5 0 0 1 -2.269-.728 25.326 25.326 0 0 0 -10.061-5.242l-1.245-.32a1.736 1.736 0 0 0 -.872 0l-1.245.319a25.326 25.326 0 0 0 -10.061 5.244 3.51 3.51 0 0 1 -2.27.727h-1.817a3.571 3.571 0 0 1 -3.671-3.427z"/><path d="m60.687 63.75a1.75 1.75 0 0 0 -1.75 1.75v1.25a1.75 1.75 0 1 0 3.5 0v-1.25a1.75 1.75 0 0 0 -1.75-1.75z"/><path d="m67.312 68.5a1.75 1.75 0 0 0 1.75-1.75v-1.25a1.75 1.75 0 1 0 -3.5 0v1.25a1.75 1.75 0 0 0 1.75 1.75z"/><path d="m60.687 70.333a1.75 1.75 0 0 0 -1.75 1.75v1.25a1.75 1.75 0 1 0 3.5 0v-1.25a1.75 1.75 0 0 0 -1.75-1.75z"/><path d="m67.312 75.083a1.75 1.75 0 0 0 1.75-1.75v-1.25a1.75 1.75 0 1 0 -3.5 0v1.25a1.75 1.75 0 0 0 1.75 1.75z"/><path d="m76.881 107.655h-25.762a1.75 1.75 0 0 0 -1.75 1.75v5.579a1.75 1.75 0 0 0 3.5 0v-3.829h22.262v3.829a1.75 1.75 0 0 0 3.5 0v-5.579a1.75 1.75 0 0 0 -1.75-1.75z"/><path d="m60.438 17.018c-10.317 1.482-15.153 10.273-15.355 10.646a1.75 1.75 0 0 0 3.083 1.658c.041-.076 4.181-7.605 12.77-8.84a1.75 1.75 0 1 0 -.5-3.465z"/></svg>