<svg id="Layer_3" enable-background="new 0 0 64 64" height="512" viewBox="0 0 64 64" width="512" xmlns="http://www.w3.org/2000/svg"><path d="m62 18h-3.483c-.414-1.724-1.085-3.351-2.005-4.854l2.459-2.459c.188-.188.293-.441.293-.707 0-.265-.105-.52-.293-.707l-4.243-4.243c-.375-.375-1.039-.375-1.414 0l-2.459 2.459c-1.503-.92-3.13-1.593-4.855-2.006v-3.483c0-.553-.448-1-1-1h-6c-.552 0-1 .447-1 1v3.483c-1.725.413-3.352 1.086-4.855 2.005l-2.459-2.459c-.375-.375-1.039-.375-1.414 0l-4.243 4.243c-.188.188-.293.442-.293.707 0 .266.105.52.293.707l2.459 2.459c-.92 1.504-1.592 3.131-2.005 4.854h-3.483c-.552 0-1 .447-1 1v5h-1c-1.103 0-2 .897-2 2v5h-14c-1.654 0-3 1.346-3 3v12c0 .553.448 1 1 1h1v15c0 .553.448 1 1 1h46c.552 0 1-.447 1-1v-14.999h1c.552 0 1-.447 1-1v-7.343l.314.314c.375.375 1.039.375 1.414 0l4.243-4.243c.188-.188.293-.442.293-.707 0-.266-.105-.52-.293-.707l-2.459-2.459c.92-1.504 1.592-3.131 2.005-4.854h3.483c.552 0 1-.447 1-1v-6c0-.554-.448-1.001-1-1.001zm-42 8h2 3.483c.414 1.724 1.085 3.351 2.005 4.854l-.145.146h-7.343zm29 35h-44v-14h4v7c0 .553.448 1 1 1h6c.552 0 1-.447 1-1v-7h4v3c0 .553.448 1 1 1h10c.552 0 1-.447 1-1v-3h4v7c0 .553.448 1 1 1h6c.552 0 1-.447 1-1v-7h4zm-38-10h4v2h-4zm4-2h-4v-2h4zm8-2h8v2h-8zm16 4h4v2h-4zm4-2h-4v-2h4zm8-4h-48v-11c0-.552.449-1 1-1h21.343l-.314.313c-.188.188-.293.441-.293.707 0 .265.105.52.293.707l4.243 4.243c.375.375 1.039.375 1.414 0l2.459-2.459c1.503.919 3.13 1.592 4.855 2.005v3.484c0 .553.448 1 1 1h6c.552 0 1-.447 1-1v-3.483c1.725-.413 3.352-1.086 4.855-2.005l.145.145zm10-21h-3.291c-.48 0-.893.342-.982.813-.385 2.03-1.166 3.919-2.32 5.615-.271.397-.22.93.12 1.27l2.323 2.322-2.829 2.829-2.323-2.323c-.339-.339-.872-.392-1.27-.119-1.694 1.153-3.583 1.934-5.615 2.319-.471.09-.813.503-.813.983v3.291h-4v-3.291c0-.48-.342-.893-.813-.982-2.032-.386-3.921-1.166-5.615-2.319-.398-.272-.93-.22-1.27.119l-2.323 2.323-2.829-2.829 1.021-1.021h.141v-.141l1.161-1.161c.34-.34.39-.872.12-1.27-1.154-1.696-1.935-3.585-2.32-5.615-.089-.471-.502-.813-.982-.813h-3.291v-4h3.291c.48 0 .893-.342.982-.813.385-2.03 1.166-3.919 2.32-5.615.271-.397.22-.93-.12-1.27l-2.323-2.323 2.829-2.829 2.323 2.323c.34.34.873.393 1.27.119 1.694-1.153 3.583-1.934 5.615-2.319.471-.089.813-.502.813-.982v-3.291h4v3.291c0 .48.342.893.813.982 2.032.386 3.921 1.166 5.615 2.319.399.273.931.221 1.27-.119l2.323-2.323 2.829 2.829-2.323 2.322c-.34.34-.39.872-.12 1.27 1.154 1.696 1.935 3.585 2.32 5.615.089.472.502.814.982.814h3.291z"/><path d="m42 9c-7.168 0-13 5.832-13 13s5.832 13 13 13 13-5.832 13-13-5.832-13-13-13zm-1 23.949v-5.171c0-.419-.261-.793-.654-.938-2.001-.737-3.346-2.726-3.346-4.947 0-1.68.765-3.226 2-4.2v4.2c0 .258.1.507.279.692l2 2.083c.377.393 1.065.393 1.442 0l2-2.083c.179-.186.279-.435.279-.692v-4.2c1.235.975 2 2.521 2 4.2 0 2.222-1.345 4.21-3.346 4.947-.393.145-.654.519-.654.938v5.171c-.33.03-.662.051-1 .051s-.67-.021-1-.051zm4-.375v-4.137c2.419-1.189 4-3.734 4-6.544 0-3.062-1.871-5.807-4.655-6.831-.306-.112-.648-.068-.917.118-.268.187-.428.493-.428.82v5.49l-1 1.041-1-1.041v-5.49c0-.327-.16-.633-.428-.82-.269-.187-.611-.23-.917-.118-2.784 1.024-4.655 3.769-4.655 6.831 0 2.81 1.581 5.354 4 6.544v4.137c-4.61-1.31-8-5.549-8-10.574 0-6.065 4.935-11 11-11s11 4.935 11 11c0 5.024-3.39 9.263-8 10.574z"/></svg>