<?xml version="1.0" encoding="utf-8"?>
<!-- Generator: Adobe Illustrator 25.0.1, SVG Export Plug-In . SVG Version: 6.00 Build 0)  -->
<svg version="1.1" id="Bold" xmlns="http://www.w3.org/2000/svg" xmlns:xlink="http://www.w3.org/1999/xlink" x="0px" y="0px"
	 viewBox="0 0 24 24" style="enable-background:new 0 0 24 24;" xml:space="preserve">
<path style="fill:#2C3148;" d="M2.5,8.5h4C6.8,8.5,7,8.7,7,9v13c0,0.3-0.2,0.5-0.5,0.5h-4C2.2,22.5,2,22.3,2,22V9
	C2,8.7,2.2,8.5,2.5,8.5z"/>
<ellipse style="fill:#2C3148;" cx="4.5" cy="4" rx="2.5" ry="2.5"/>
<path style="fill:#2C3148;" d="M18.5,22.5h3c0.3,0,0.5-0.2,0.5-0.5v-8.4C22,9.8,19.9,8,16.9,8c-1.2,0-2.3,0.4-3.2,1.3
	c-0.1,0.2-0.4,0.2-0.6,0C13.1,9.2,13,9.1,13,9c0-0.3-0.2-0.5-0.5-0.5h-3C9.2,8.5,9,8.7,9,9v13c0,0.3,0.2,0.5,0.5,0.5h3
	c0.3,0,0.5-0.2,0.5-0.5v-7.5c0-1.4,1.1-2.5,2.5-2.5s2.5,1.1,2.5,2.5V22C18,22.3,18.2,22.5,18.5,22.5z"/>
</svg>
