<?xml version="1.0" encoding="utf-8"?>
<!-- Generator: Adobe Illustrator 25.0.1, SVG Export Plug-In . SVG Version: 6.00 Build 0)  -->
<svg version="1.1" id="Bold" xmlns="http://www.w3.org/2000/svg" xmlns:xlink="http://www.w3.org/1999/xlink" x="0px" y="0px"
	 viewBox="0 0 24 24" style="enable-background:new 0 0 24 24;" xml:space="preserve">
<path style="fill:#2C3148;" d="M23.3,6.4c0.2-0.2,0.2-0.5,0.1-0.7c-0.1-0.1-0.2-0.1-0.3-0.2l-0.8-0.2C22.1,5.3,21.9,5,22,4.8
	c0,0,0-0.1,0-0.1l0.4-0.9c0.1-0.2,0-0.5-0.2-0.7c-0.1-0.1-0.2-0.1-0.3,0l-2,0.6c-0.2,0-0.3,0-0.4-0.1c-0.9-0.6-1.9-1-3-1
	c-2.8,0-5,2.2-5,5l0,0v0.4c0,0.1-0.1,0.2-0.2,0.2C8.4,8.5,5.7,7.1,2.8,3.7C2.7,3.6,2.5,3.5,2.3,3.6C2.1,3.7,2,3.8,2,4
	C1.6,5.6,1.8,7.4,2.5,8.9c0.1,0.1,0,0.3-0.1,0.3c0,0-0.1,0-0.1,0L1.1,9.1C0.8,9,0.6,9.2,0.5,9.5c0,0.1,0,0.1,0,0.2
	c0.2,1.6,1,2.9,2.4,3.8C3,13.5,3.1,13.6,3,13.8c0,0.1-0.1,0.1-0.1,0.1l-0.5,0.2c-0.3,0.1-0.4,0.4-0.3,0.7c0,0,0,0,0,0
	c0.6,1.3,1.8,2.2,3.2,2.5c0.1,0,0.2,0.2,0.1,0.3c0,0.1-0.1,0.1-0.1,0.1c-1.4,0.6-2.8,0.8-4.3,0.8c-0.3-0.1-0.5,0.1-0.6,0.4
	s0.1,0.5,0.4,0.6l0,0c2.5,1.2,5.3,1.9,8.1,1.9c2.5,0,4.9-0.7,7-2c3.5-2.3,5.6-6.2,5.6-10.4V8.2c0-0.1,0.1-0.3,0.2-0.4L23.3,6.4z"/>
</svg>
